# xmcd CD database file
#
# Track frame offsets:
#	150
#	51832
#	137571
#	208881
#	283085
#	333433
#
# Disc length: 4524 seconds
#
# Revision: 0
# Processed by: cddbd v1.5.1PL0 Copyright (c) Steve Scherf et al.
# Submitted via: CDex 1.51
#
DISCID=5e11aa06
DTITLE=Steve Kimock Band - 02-08-10 Disc3
DYEAR=2002
DGENRE=Jazz
TTITLE0=Bronx Experiement
TTITLE1=Song One
TTITLE2=Tongue N Groove
TTITLE3=Rainbows Cadillac
TTITLE4=Arf
TTITLE5=band intros-
EXTD=YEAR: 2002
EXTT0=
EXTT1=
EXTT2=
EXTT3=
EXTT4=
EXTT5=
PLAYORDER=
